<svg fill="#eb5e00" width="52" height="52" viewBox="0 0 64 64" xmlns="http://www.w3.org/2000/svg"><path fill-rule="evenodd" clip-rule="evenodd" d="M29.0404 2.84857C37.3942 -2.55768 48.9532 -0.03685 54.8045 8.46836V8.47877C56.9798 11.5673 58.1489 15.2699 58.148 19.0673C58.1457 20.1376 58.053 21.2057 57.8712 22.26C57.464 24.539 56.6076 26.711 55.3532 28.6454C56.6804 31.2241 57.3752 34.0899 57.3789 36.9996C57.3798 38.0703 57.2854 39.1389 57.0968 40.1923C56.686 42.5352 55.7972 44.765 54.4874 46.7384C53.1777 48.7117 51.476 50.385 49.4917 51.6506L34.8301 61.1506C26.5019 66.5569 14.9173 64.036 9.06602 55.5308C7.67584 53.5573 6.68759 51.3218 6.15923 48.9553C5.63087 46.5888 5.57303 44.1391 5.9891 41.7496C6.39553 39.4687 7.25202 37.2949 8.50704 35.3589C7.16881 32.7797 6.46503 29.9098 6.45576 26.9944C6.45733 25.9221 6.55171 24.852 6.73782 23.7965C7.15443 21.4543 8.04787 19.2264 9.36097 17.2551C10.6741 15.2838 12.3779 13.6126 14.3635 12.3485L29.0404 2.84857ZM24.6711 56.7131C25.6608 56.7122 26.6464 56.5845 27.6045 56.3329C28.6602 56.0449 29.6667 55.5953 30.5892 54.9996L45.2404 45.5048C46.4322 44.7418 47.4544 43.7351 48.242 42.5487C49.0296 41.3624 49.5652 40.0224 49.8147 38.6142C49.9287 37.9749 49.9853 37.3264 49.984 36.6767C49.9836 34.3926 49.2808 32.1656 47.9737 30.3069C46.9 28.7364 45.4678 27.4533 43.7996 26.5671C42.1314 25.681 40.2768 25.2182 38.3942 25.2184C37.4047 25.2196 36.4191 25.3473 35.4609 25.5986C34.4071 25.8849 33.4024 26.3328 32.4814 26.9267L26.8814 30.5725C26.6037 30.7546 26.299 30.89 25.9789 30.9736C25.691 31.0507 25.3945 31.0892 25.0968 31.0881C24.5304 31.0882 23.9723 30.949 23.4705 30.6823C22.9685 30.4156 22.5378 30.0295 22.2147 29.5569C21.8209 28.9959 21.6093 28.324 21.6097 27.635C21.6178 27.4495 21.6401 27.2649 21.6763 27.0829C21.7519 26.6577 21.9135 26.253 22.151 25.8944C22.3884 25.5358 22.6965 25.2311 23.0558 24.9996L37.7327 15.5048C38.0099 15.3219 38.3148 15.1864 38.6352 15.1038C38.9189 15.0205 39.2119 14.975 39.507 14.9683C40.0734 14.9687 40.6312 15.1082 41.1331 15.3748C41.635 15.6414 42.0658 16.0273 42.3891 16.4996C42.7829 17.0646 42.9943 17.7397 42.9942 18.4319V18.7183L42.9429 19.2704L43.4865 19.4423C45.5507 20.0751 47.4932 21.0615 49.2302 22.359L49.9789 22.9163L50.2558 22.0621C50.4043 21.6071 50.5225 21.1425 50.6096 20.6715C50.7181 20.0368 50.773 19.3938 50.7738 18.7496C50.7818 16.4666 50.0881 14.2379 48.7891 12.3746C47.7123 10.8014 46.2758 9.5171 44.6029 8.63172C42.9299 7.74634 41.0705 7.28638 39.184 7.2913C38.1946 7.29085 37.2091 7.41684 36.2507 7.6663C35.1967 7.95481 34.1921 8.40439 33.2711 8.99963L18.5943 18.4944C17.4033 19.2583 16.3816 20.2653 15.5941 21.4515C14.8067 22.6377 14.2706 23.9772 14.0198 25.385C13.9113 26.018 13.8565 26.6592 13.8558 27.3017C13.8562 29.5858 14.559 31.8127 15.866 33.6715C16.9389 35.2416 18.3703 36.5245 20.0375 37.4106C21.7049 38.2968 23.5586 38.7597 25.4404 38.76C26.4299 38.7584 27.4154 38.6307 28.3738 38.3798C29.4272 38.0925 30.4318 37.6447 31.3532 37.0517L36.943 33.4267C37.2191 33.2451 37.522 33.1097 37.8403 33.0256C38.1282 32.9485 38.4247 32.91 38.7225 32.9111C39.2897 32.9106 39.8486 33.0496 40.3513 33.3163C40.8542 33.583 41.2858 33.9693 41.6097 34.4423C42.009 35.0014 42.2259 35.6735 42.2302 36.3642C42.2319 36.8929 42.1017 37.4135 41.8514 37.8771C41.6012 38.3408 41.2392 38.7324 40.7993 39.0152L26.1378 48.5621C25.859 48.742 25.5546 48.8773 25.2353 48.9631C24.9474 49.0403 24.6509 49.0788 24.3532 49.0777C23.7839 49.0752 23.2237 48.9315 22.7215 48.6593C22.2192 48.387 21.79 47.9942 21.4711 47.5152C21.0766 46.9527 20.865 46.2789 20.8661 45.5881V45.3017L20.9173 44.7496L20.3738 44.5829C18.3104 43.948 16.3683 42.9617 14.6301 41.6663L13.8814 41.0881L13.6045 41.9423C13.456 42.3973 13.3378 42.8619 13.2507 43.3329C13.1422 43.9659 13.0872 44.6071 13.0865 45.2496C13.0852 47.534 13.7882 49.7614 15.0968 51.6194C16.1683 53.1914 17.599 54.4761 19.2666 55.3632C20.9342 56.2504 22.7886 56.7136 24.6711 56.7131Z"/></svg>